<svg width="174" height="28" viewBox="0 0 174 28" fill="none" xmlns="http://www.w3.org/2000/svg">
<path d="M0.592266 27H5.48827V15.192L15.8203 27H22.0123L10.4923 13.86L21.3283 1.08H15.3523L5.48827 13.032V1.08H0.592266V27ZM24.5337 27H29.4297V18.216H34.8837L39.1497 27H44.6937L40.0137 17.388C41.4897 16.716 42.5757 15.702 43.2717 14.346C43.9797 12.978 44.3337 11.412 44.3337 9.648C44.3337 7.464 43.7997 5.604 42.7317 4.068C41.6637 2.532 39.9657 1.584 37.6377 1.224C37.3017 1.164 36.9177 1.128 36.4857 1.116C36.0657 1.092 35.7297 1.08 35.4777 1.08H24.5337V27ZM29.4297 13.644V5.652H35.2617C35.5137 5.652 35.7897 5.664 36.0897 5.688C36.3897 5.712 36.6657 5.76 36.9177 5.832C37.5777 6.012 38.0877 6.318 38.4477 6.75C38.8077 7.17 39.0537 7.644 39.1857 8.172C39.3297 8.688 39.4017 9.18 39.4017 9.648C39.4017 10.116 39.3297 10.614 39.1857 11.142C39.0537 11.658 38.8077 12.132 38.4477 12.564C38.0877 12.984 37.5777 13.284 36.9177 13.464C36.6657 13.536 36.3897 13.584 36.0897 13.608C35.7897 13.632 35.5137 13.644 35.2617 13.644H29.4297ZM48.6509 27H65.5709V22.428H53.5469V15.768H63.4109V11.196H53.5469V5.652H65.5709V1.08H48.6509V27ZM68.0852 27H73.1252L74.7632 21.6H84.5192L86.1932 27H91.2332L83.3132 1.08H76.0052L68.0852 27ZM76.1492 17.028L79.6052 5.67L83.1152 17.028H76.1492ZM98.3269 27H103.223V5.652H111.395V1.08H90.1549V5.652H98.3269V27ZM114.648 27H119.544V1.08H114.648V27ZM136.064 27.54C138.656 27.54 140.888 26.976 142.76 25.848C144.644 24.72 146.09 23.142 147.098 21.114C148.118 19.086 148.628 16.728 148.628 14.04C148.628 11.352 148.118 8.994 147.098 6.966C146.09 4.938 144.644 3.36 142.76 2.232C140.888 1.104 138.656 0.539999 136.064 0.539999C133.472 0.539999 131.234 1.104 129.35 2.232C127.478 3.36 126.032 4.938 125.012 6.966C124.004 8.994 123.5 11.352 123.5 14.04C123.5 16.728 124.004 19.086 125.012 21.114C126.032 23.142 127.478 24.72 129.35 25.848C131.234 26.976 133.472 27.54 136.064 27.54ZM136.064 22.932C133.604 22.896 131.756 22.08 130.52 20.484C129.296 18.888 128.684 16.74 128.684 14.04C128.684 11.34 129.296 9.174 130.52 7.542C131.756 5.91 133.604 5.112 136.064 5.148C138.536 5.184 140.384 6 141.608 7.596C142.832 9.192 143.444 11.34 143.444 14.04C143.444 16.74 142.832 18.906 141.608 20.538C140.384 22.17 138.536 22.968 136.064 22.932ZM152.221 27H157.189V9.72L168.457 27H173.425V1.08H168.457V18.36L157.189 1.08H152.221V27Z" fill="white"/>
</svg>
